<?xml version="1.0" encoding="iso-8859-1"?>
<!-- Uploaded to: SVG Repo, www.svgrepo.com, Generator: SVG Repo Mixer Tools -->
<svg height="800px" width="800px" version="1.1" id="Layer_1" xmlns="http://www.w3.org/2000/svg" xmlns:xlink="http://www.w3.org/1999/xlink" 
	 viewBox="0 0 315.025 315.025" xml:space="preserve">
<path style="fill:#FDFADD;" d="M124.323,148.925c-40.107,0-75.777-18.994-98.509-48.475c-4.644-6.023-14.15-4.709-16.974,2.352
	c-6.167,15.425-9.334,32.373-8.777,50.125c2.105,67.015,56.339,119.856,123.385,120.317
	c69.062,0.475,125.196-55.367,125.196-124.319c0-0.244-0.001-0.487-0.002-0.73c-0.146-25.397-29.313-39.504-49.599-24.224
	C178.244,139.638,152.369,148.925,124.323,148.925z"/>
<path style="fill:#F4F1D7;" d="M124.323,148.925c-40.107,0-75.777-18.994-98.509-48.475c-4.644-6.023-14.15-4.709-16.974,2.352
	c-6.167,15.425-9.334,32.373-8.777,50.125c2.105,67.015,56.339,119.856,123.385,120.317L124.323,148.925z"/>
<path style="fill:#FAD0B0;" d="M234.323,87.966h66.809c7.673,0,13.893,6.22,13.893,13.893v7.001
	c0,20.588-23.232,37.337-43.82,37.337h-36.882V87.966z"/>
<polygon style="fill:#E4BFA2;" points="234.323,87.966 271.432,87.966 271.205,146.196 234.323,146.196 "/>
<circle style="fill:#FDFADD;" cx="218.296" cy="94.913" r="53.136"/>
<circle style="fill:#FFFFFF;" cx="218.296" cy="94.913" r="13.647"/>
<path style="fill:#F2F2F2;" d="M218.296,108.559c-7.537,0-13.647-6.11-13.647-13.647s6.11-13.647,13.647-13.647V108.559z"/>
<circle style="fill:#80635B;" cx="218.296" cy="94.913" r="6.268"/>
<path style="fill:#6F564F;" d="M218.297,101.18c-1.604,0-3.208-0.612-4.432-1.836c-2.448-2.448-2.448-6.416,0-8.864
	c1.224-1.224,2.828-1.836,4.432-1.836V101.18z"/>
</svg>